<svg width="12" height="16" viewBox="0 0 12 16" fill="none" xmlns="http://www.w3.org/2000/svg">
<path d="M0 0.290527V15.5236H8.88237L12 12.406V0.290527L0 0.290527ZM0.892563 1.18309H11.1074V11.5864H8.06279V14.631H0.892533V1.18309H0.892563ZM10.6647 12.479L8.95535 14.1883V12.479H10.6647Z" fill="white"/>
<path d="M4.09595 3.01782H7.90421V3.91039H4.09595V3.01782Z" fill="white"/>
<path d="M2.35034 5.23926H9.64951V6.13182H2.35034V5.23926Z" fill="white"/>
<path d="M2.35034 7.14331H9.64951V8.03587H2.35034V7.14331Z" fill="white"/>
<path d="M2.35034 9.04761H9.64951V9.94017H2.35034V9.04761Z" fill="white"/>
<path d="M2.35034 11.5864H3.2875V12.479H2.35034V11.5864Z" fill="white"/>
<path d="M4.18018 11.5864H6.00005V12.479H4.18018V11.5864Z" fill="white"/>
</svg>
