<svg width="16" height="17" viewBox="0 0 16 17" fill="none" xmlns="http://www.w3.org/2000/svg">
<g clip-path="url(#clip0_1274_673)">
<path d="M8.00009 0.54126C5.64715 0.54126 3.76479 2.42361 3.76479 4.77655V6.65891C2.96479 6.65891 2.35303 7.27067 2.35303 8.07067V14.1883C2.35303 14.9883 2.96479 15.6001 3.76479 15.6001H12.2354C13.0354 15.6001 13.6471 14.9883 13.6471 14.1883V8.07067C13.6471 7.27067 13.0354 6.65891 12.2354 6.65891V4.77655C12.2354 2.42361 10.353 0.54126 8.00009 0.54126ZM12.706 8.07067V14.1883C12.706 14.4707 12.5177 14.6589 12.2354 14.6589H3.76479C3.48244 14.6589 3.2942 14.4707 3.2942 14.1883V8.07067C3.2942 7.78832 3.48244 7.60008 3.76479 7.60008H4.23538H11.7648H12.2354C12.5177 7.60008 12.706 7.78832 12.706 8.07067ZM4.70597 6.65891V4.77655C4.70597 2.94126 6.16479 1.48244 8.00009 1.48244C9.83538 1.48244 11.2942 2.94126 11.2942 4.77655V6.65891H4.70597Z" fill="white"/>
<path d="M8.00014 9.01196C7.20014 9.01196 6.58838 9.62373 6.58838 10.4237C6.58838 11.0355 6.96485 11.5531 7.52956 11.7414V12.7767C7.52956 13.059 7.71779 13.2473 8.00014 13.2473C8.2825 13.2473 8.47073 13.059 8.47073 12.7767V11.7414C9.03544 11.5531 9.41191 11.0355 9.41191 10.4237C9.41191 9.62373 8.80014 9.01196 8.00014 9.01196ZM8.00014 10.8943C7.71779 10.8943 7.52956 10.7061 7.52956 10.4237C7.52956 10.1414 7.71779 9.95314 8.00014 9.95314C8.2825 9.95314 8.47073 10.1414 8.47073 10.4237C8.47073 10.7061 8.2825 10.8943 8.00014 10.8943Z" fill="white"/>
</g>
<defs>
<clipPath id="clip0_1274_673">
<rect width="16" height="16" fill="white" transform="translate(0 0.0705566)"/>
</clipPath>
</defs>
</svg>
