<svg width="17" height="16" viewBox="0 0 17 16" fill="none" xmlns="http://www.w3.org/2000/svg">
<path d="M13.3956 6.62689H12.751H12.7509V4.35658C12.7508 1.95439 10.7965 0 8.39427 0C5.99216 0 4.03776 1.95439 4.03776 4.35661V6.62692H3.39307C2.88343 6.62692 2.47021 7.04007 2.47021 7.54974V8.11113V14.5158V15.0772C2.47021 15.5869 2.8834 16 3.39307 16H8.3943H13.3956C13.9052 16 14.3184 15.5869 14.3184 15.0772V14.5158V8.11113V7.54974C14.3184 7.04004 13.9052 6.62689 13.3956 6.62689ZM9.37656 13.2372H7.41208L7.76367 11.5619C7.43486 11.3526 7.21523 10.9873 7.21523 10.5687C7.21523 9.91751 7.74316 9.38965 8.3943 9.38965C9.04548 9.38965 9.57331 9.91751 9.57331 10.5687C9.57331 10.9873 9.35374 11.3526 9.02497 11.5618L9.37656 13.2372ZM11.1964 6.62689H8.3943H5.59238H5.59222V4.35658C5.59222 2.81136 6.84915 1.55446 8.3943 1.55446C9.93952 1.55446 11.1964 2.81139 11.1964 4.35658V6.62689Z" fill="#797979"/>
</svg>
