<svg width="37" height="37" viewBox="0 0 37 37" fill="none" xmlns="http://www.w3.org/2000/svg">
<path d="M18.4999 12.0091C14.9137 12.0091 12.009 14.9138 12.009 18.5C12.009 22.0863 14.9137 24.9909 18.4999 24.9909C22.0861 24.9909 24.9908 22.0863 24.9908 18.5C24.9908 14.9138 22.0861 12.0091 18.4999 12.0091ZM33.0071 16.8773C32.6395 13.5866 31.1639 10.5187 28.8226 8.17736C26.4812 5.83602 23.4133 4.36041 20.1226 3.99284V0.650024H16.8772V3.99284C13.5865 4.36041 10.5186 5.83602 8.17724 8.17736C5.8359 10.5187 4.36029 13.5866 3.99272 16.8773H0.649902V20.1228H3.99272C4.36029 23.4134 5.8359 26.4813 8.17724 28.8227C10.5186 31.164 13.5865 32.6396 16.8772 33.0072V36.35H20.1226V33.0072C23.4133 32.6396 26.4812 31.164 28.8226 28.8227C31.1639 26.4813 32.6395 23.4134 33.0071 20.1228H36.3499V16.8773H33.0071ZM18.4999 29.8591C12.2199 29.8591 7.14081 24.78 7.14081 18.5C7.14081 12.2201 12.2199 7.14093 18.4999 7.14093C24.7799 7.14093 29.859 12.2201 29.859 18.5C29.859 24.78 24.7799 29.8591 18.4999 29.8591Z" fill="white"/>
</svg>
