<svg width="14" height="15" viewBox="0 0 14 15" fill="none" xmlns="http://www.w3.org/2000/svg">
<path d="M11.375 9.68333C10.5106 9.68333 9.74257 10.1034 9.26398 10.75L5.1436 8.6443C5.21273 8.40945 5.25 8.1611 5.25 7.90417C5.25 7.55618 5.18178 7.22388 5.05826 6.9197L9.37667 4.3251C9.85851 4.89064 10.5755 5.25 11.375 5.25C12.8224 5.25 14 4.07242 14 2.625C14 1.17757 12.8224 0 11.375 0C9.92758 0 8.75 1.17757 8.75 2.625C8.75 2.95954 8.81303 3.27959 8.92762 3.57408L4.59842 6.17517C4.11693 5.62631 3.41078 5.27917 2.625 5.27917C1.17757 5.27917 0 6.45674 0 7.90417C0 9.35159 1.17757 10.5292 2.625 10.5292C3.50356 10.5292 4.2826 10.0953 4.75933 9.43058L8.86775 11.5301C8.79124 11.7761 8.75 12.0375 8.75 12.3083C8.75 13.7558 9.92758 14.9333 11.375 14.9333C12.8224 14.9333 14 13.7558 14 12.3083C14 10.8609 12.8224 9.68333 11.375 9.68333ZM11.375 0.875C12.3399 0.875 13.125 1.66005 13.125 2.625C13.125 3.58995 12.3399 4.375 11.375 4.375C10.4101 4.375 9.625 3.58995 9.625 2.625C9.625 1.66005 10.4101 0.875 11.375 0.875ZM2.625 9.65417C1.66005 9.65417 0.875 8.86912 0.875 7.90417C0.875 6.93922 1.66005 6.15417 2.625 6.15417C3.58995 6.15417 4.375 6.93922 4.375 7.90417C4.375 8.86912 3.58995 9.65417 2.625 9.65417ZM11.375 14.0583C10.4101 14.0583 9.625 13.2733 9.625 12.3083C9.625 11.3434 10.4101 10.5583 11.375 10.5583C12.3399 10.5583 13.125 11.3434 13.125 12.3083C13.125 13.2733 12.3399 14.0583 11.375 14.0583Z" fill="white"/>
</svg>
