<svg width="17" height="16" viewBox="0 0 17 16" fill="none" xmlns="http://www.w3.org/2000/svg">
<path d="M8.39538 8.3084C10.6811 8.3084 12.5496 6.43993 12.5496 4.1542C12.5496 1.86847 10.6811 0 8.39538 0C6.10965 0 4.24121 1.86847 4.24121 4.1542C4.24121 6.43993 6.10968 8.3084 8.39538 8.3084Z" fill="#797979"/>
<path d="M15.5247 11.628C15.4159 11.3559 15.2708 11.1019 15.1075 10.8661C14.273 9.63253 12.9851 8.81621 11.5338 8.61667C11.3524 8.59854 11.1529 8.63479 11.0077 8.74364C10.2458 9.30601 9.33883 9.59625 8.39549 9.59625C7.45216 9.59625 6.54514 9.30601 5.78323 8.74364C5.6381 8.63479 5.43855 8.58038 5.25716 8.61667C3.80591 8.81621 2.4998 9.63253 1.68348 10.8661C1.52021 11.1019 1.37507 11.3741 1.26626 11.628C1.21185 11.7369 1.22997 11.8639 1.28438 11.9727C1.42952 12.2267 1.61091 12.4807 1.77417 12.6983C2.02813 13.043 2.30025 13.3514 2.60865 13.6416C2.86261 13.8956 3.15285 14.1314 3.44313 14.3673C4.87622 15.4376 6.59959 15.9999 8.37737 15.9999C10.1551 15.9999 11.8785 15.4375 13.3116 14.3673C13.6018 14.1496 13.8921 13.8956 14.1461 13.6416C14.4363 13.3514 14.7266 13.043 14.9806 12.6983C15.162 12.4625 15.3252 12.2267 15.4704 11.9727C15.561 11.8639 15.5791 11.7368 15.5247 11.628Z" fill="#797979"/>
</svg>
